<svg width="38" height="38" viewBox="0 0 38 38" fill="none" xmlns="http://www.w3.org/2000/svg">
<path d="M23.7916 12.4083L21.6833 14.025L22.4416 16.575L20.2499 15.0667L18.0583 16.575L18.8166 14.025L16.7083 12.4083L19.3666 12.3333L20.2499 9.83333L21.1333 12.3333L23.7916 12.4083ZM26.7083 18.1667L25.3416 19.2083L25.8333 20.8583L24.4166 19.8833L22.9999 20.8583L23.4916 19.2083L22.1249 18.1667L23.8416 18.125L24.4166 16.5L24.9916 18.125L26.7083 18.1667ZM24.8083 22.2917C25.4999 22.225 26.2416 23.2083 25.7999 23.8333C25.5333 24.2083 25.2499 24.5583 24.8999 24.8917C21.6416 28.1667 16.3666 28.1667 13.1166 24.8917C9.85827 21.6417 9.85827 16.3583 13.1166 13.1083C13.4499 12.775 13.7999 12.475 14.1749 12.2083C14.7999 11.7667 15.7833 12.5083 15.7166 13.2C15.4916 15.5833 16.2916 18.0583 18.1249 19.8833C19.9499 21.7167 22.4166 22.5167 24.8083 22.2917ZM23.4416 23.975C21.0833 23.8417 18.7499 22.8667 16.9416 21.0833C15.1333 19.2583 14.1666 16.9167 14.0333 14.5667C11.6916 17.1833 11.7833 21.2 14.2916 23.7167C16.8083 26.225 20.8249 26.3167 23.4416 23.975Z" fill="white"/>
</svg>
