<svg width="86" height="25" viewBox="0 0 86 25" fill="none" xmlns="http://www.w3.org/2000/svg">
<path d="M17.5 14.33C18.29 14.33 19.13 14.41 20 14.57V16.07C19.38 15.91 18.54 15.83 17.5 15.83C15.6 15.83 14.11 16.16 13 16.82V15.13C14.17 14.6 15.67 14.33 17.5 14.33ZM13 12.46C14.29 11.93 15.79 11.67 17.5 11.67C18.29 11.67 19.13 11.74 20 11.9V13.4C19.38 13.24 18.54 13.16 17.5 13.16C15.6 13.16 14.11 13.5 13 14.15M17.5 10.5C15.6 10.5 14.11 10.82 13 11.5V9.84C14.23 9.28 15.73 9 17.5 9C18.29 9 19.13 9.08 20 9.23V10.78C19.26 10.59 18.41 10.5 17.5 10.5ZM21 18.5V7C19.96 6.67 18.79 6.5 17.5 6.5C15.45 6.5 13.62 7 12 8V19.5C13.62 18.5 15.45 18 17.5 18C18.69 18 19.86 18.16 21 18.5ZM17.5 4.5C19.85 4.5 21.69 5 23 6V20.56C23 20.68 22.95 20.8 22.84 20.91C22.73 21 22.61 21.08 22.5 21.08C22.39 21.08 22.31 21.06 22.25 21.03C20.97 20.34 19.38 20 17.5 20C15.45 20 13.62 20.5 12 21.5C10.66 20.5 8.83 20 6.5 20C4.84 20 3.25 20.36 1.75 21.07C1.72 21.08 1.68 21.08 1.63 21.1C1.59 21.11 1.55 21.12 1.5 21.12C1.39 21.12 1.27 21.08 1.16 21C1.05 20.89 1 20.78 1 20.65V6C2.34 5 4.18 4.5 6.5 4.5C8.83 4.5 10.66 5 12 6C13.34 5 15.17 4.5 17.5 4.5Z" fill="white"/>
<path d="M34.9199 17.5C34.8026 17.5 34.7066 17.4627 34.6319 17.388C34.5573 17.3133 34.5199 17.2173 34.5199 17.1V6.7C34.5199 6.58267 34.5573 6.48667 34.6319 6.412C34.7066 6.33733 34.8026 6.3 34.9199 6.3H39.1599C40.4933 6.3 41.5439 6.60933 42.3119 7.228C43.0799 7.836 43.4639 8.716 43.4639 9.868C43.4639 10.6467 43.2773 11.2973 42.9039 11.82C42.5306 12.3427 42.0293 12.732 41.3999 12.988L43.6559 16.988C43.6879 17.052 43.7039 17.1107 43.7039 17.164C43.7039 17.2493 43.6719 17.3293 43.6079 17.404C43.5439 17.468 43.4639 17.5 43.3679 17.5H41.5919C41.3999 17.5 41.2559 17.452 41.1599 17.356C41.0639 17.2493 40.9946 17.1533 40.9519 17.068L38.9999 13.404H37.0639V17.1C37.0639 17.2173 37.0266 17.3133 36.9519 17.388C36.8773 17.4627 36.7813 17.5 36.6639 17.5H34.9199ZM37.0639 11.372H39.1119C39.6986 11.372 40.1306 11.2387 40.4079 10.972C40.6959 10.7053 40.8399 10.332 40.8399 9.852C40.8399 9.372 40.7013 8.99333 40.4239 8.716C40.1466 8.43867 39.7093 8.3 39.1119 8.3H37.0639V11.372ZM50.0022 17.66C49.0635 17.66 48.2422 17.5053 47.5382 17.196C46.8342 16.876 46.2902 16.3907 45.9062 15.74C45.5222 15.0787 45.3302 14.2413 45.3302 13.228V6.7C45.3302 6.58267 45.3675 6.48667 45.4422 6.412C45.5169 6.33733 45.6129 6.3 45.7302 6.3H47.4742C47.5915 6.3 47.6875 6.33733 47.7622 6.412C47.8369 6.48667 47.8742 6.58267 47.8742 6.7V13.212C47.8742 14.0013 48.0609 14.588 48.4342 14.972C48.8075 15.356 49.3302 15.548 50.0022 15.548C50.6635 15.548 51.1809 15.356 51.5542 14.972C51.9275 14.588 52.1142 14.0013 52.1142 13.212V6.7C52.1142 6.58267 52.1515 6.48667 52.2262 6.412C52.3115 6.33733 52.4075 6.3 52.5142 6.3H54.2742C54.3809 6.3 54.4715 6.33733 54.5462 6.412C54.6209 6.48667 54.6582 6.58267 54.6582 6.7V13.228C54.6582 14.2413 54.4662 15.0787 54.0822 15.74C53.6982 16.3907 53.1595 16.876 52.4662 17.196C51.7729 17.5053 50.9515 17.66 50.0022 17.66ZM57.3262 17.5C57.2089 17.5 57.1129 17.4627 57.0382 17.388C56.9635 17.3133 56.9262 17.2173 56.9262 17.1V6.7C56.9262 6.58267 56.9635 6.48667 57.0382 6.412C57.1129 6.33733 57.2089 6.3 57.3262 6.3H59.1022C59.2195 6.3 59.3155 6.33733 59.3902 6.412C59.4649 6.48667 59.5022 6.58267 59.5022 6.7V15.356H64.4622C64.5795 15.356 64.6755 15.3933 64.7502 15.468C64.8249 15.5427 64.8622 15.6387 64.8622 15.756V17.1C64.8622 17.2173 64.8249 17.3133 64.7502 17.388C64.6755 17.4627 64.5795 17.5 64.4622 17.5H57.3262ZM66.7324 17.5C66.6151 17.5 66.5191 17.4627 66.4444 17.388C66.3698 17.3133 66.3324 17.2173 66.3324 17.1V6.7C66.3324 6.58267 66.3698 6.48667 66.4444 6.412C66.5191 6.33733 66.6151 6.3 66.7324 6.3H73.9804C74.0978 6.3 74.1938 6.33733 74.2684 6.412C74.3431 6.48667 74.3804 6.58267 74.3804 6.7V7.98C74.3804 8.08667 74.3431 8.17733 74.2684 8.252C74.1938 8.32667 74.0978 8.364 73.9804 8.364H68.7964V10.876H73.6284C73.7458 10.876 73.8418 10.9133 73.9164 10.988C73.9911 11.0627 74.0284 11.1587 74.0284 11.276V12.46C74.0284 12.5667 73.9911 12.6573 73.9164 12.732C73.8418 12.8067 73.7458 12.844 73.6284 12.844H68.7964V15.436H74.1084C74.2258 15.436 74.3218 15.4733 74.3964 15.548C74.4711 15.6227 74.5084 15.7187 74.5084 15.836V17.1C74.5084 17.2173 74.4711 17.3133 74.3964 17.388C74.3218 17.4627 74.2258 17.5 74.1084 17.5H66.7324ZM80.4426 17.66C79.4186 17.66 78.5599 17.5107 77.8666 17.212C77.1839 16.9133 76.6666 16.524 76.3146 16.044C75.9626 15.564 75.7759 15.052 75.7546 14.508C75.7546 14.4227 75.7866 14.348 75.8506 14.284C75.9146 14.2093 75.9946 14.172 76.0906 14.172H77.8026C77.9412 14.172 78.0479 14.204 78.1226 14.268C78.1972 14.3213 78.2666 14.3907 78.3306 14.476C78.4052 14.6573 78.5226 14.8333 78.6826 15.004C78.8532 15.1747 79.0826 15.3187 79.3706 15.436C79.6586 15.5427 80.0159 15.596 80.4426 15.596C81.1359 15.596 81.6532 15.484 81.9946 15.26C82.3466 15.036 82.5226 14.732 82.5226 14.348C82.5226 14.0707 82.4266 13.8467 82.2346 13.676C82.0532 13.5053 81.7599 13.3507 81.3546 13.212C80.9599 13.0733 80.4319 12.924 79.7706 12.764C78.9706 12.5933 78.2879 12.3747 77.7226 12.108C77.1679 11.8307 76.7466 11.4787 76.4586 11.052C76.1812 10.6147 76.0426 10.076 76.0426 9.436C76.0426 8.796 76.2186 8.23067 76.5706 7.74C76.9226 7.23867 77.4186 6.84933 78.0586 6.572C78.6986 6.284 79.4612 6.14 80.3466 6.14C81.0612 6.14 81.6906 6.236 82.2346 6.428C82.7892 6.62 83.2479 6.87067 83.6106 7.18C83.9839 7.48933 84.2666 7.82 84.4586 8.172C84.6506 8.524 84.7519 8.86533 84.7626 9.196C84.7626 9.28133 84.7306 9.36133 84.6666 9.436C84.6026 9.5 84.5226 9.532 84.4266 9.532H82.6346C82.5279 9.532 82.4319 9.51067 82.3466 9.468C82.2612 9.42533 82.1919 9.35067 82.1386 9.244C82.0746 8.96667 81.8826 8.72667 81.5626 8.524C81.2532 8.31067 80.8479 8.204 80.3466 8.204C79.8239 8.204 79.4079 8.3 79.0986 8.492C78.7999 8.684 78.6506 8.97733 78.6506 9.372C78.6506 9.628 78.7252 9.84667 78.8746 10.028C79.0346 10.1987 79.2959 10.3533 79.6586 10.492C80.0319 10.62 80.5226 10.764 81.1306 10.924C82.0692 11.116 82.8319 11.3453 83.4186 11.612C84.0052 11.8787 84.4372 12.2253 84.7146 12.652C84.9919 13.068 85.1306 13.596 85.1306 14.236C85.1306 14.9507 84.9279 15.564 84.5226 16.076C84.1279 16.588 83.5786 16.9827 82.8746 17.26C82.1812 17.5267 81.3706 17.66 80.4426 17.66Z" fill="white"/>
<path d="M33.3359 21.5H85.6586V24.7H33.3359V21.5Z" fill="white"/>
</svg>
