<svg width="102" height="20" viewBox="0 0 102 20" fill="none" xmlns="http://www.w3.org/2000/svg">
<path d="M11.8253 11.825L5.00033 15L8.17533 8.175L15.0003 5M10.0003 1.66667C8.90598 1.66667 7.82234 1.88221 6.8113 2.301C5.80025 2.71979 4.88159 3.33362 4.10777 4.10744C2.54497 5.67025 1.66699 7.78986 1.66699 10C1.66699 12.2101 2.54497 14.3298 4.10777 15.8926C4.88159 16.6664 5.80025 17.2802 6.8113 17.699C7.82234 18.1178 8.90598 18.3333 10.0003 18.3333C12.2105 18.3333 14.3301 17.4554 15.8929 15.8926C17.4557 14.3298 18.3337 12.2101 18.3337 10C18.3337 8.90565 18.1181 7.82202 17.6993 6.81097C17.2805 5.79992 16.6667 4.88126 15.8929 4.10744C15.1191 3.33362 14.2004 2.71979 13.1894 2.301C12.1783 1.88221 11.0947 1.66667 10.0003 1.66667ZM10.0003 9.08333C9.75721 9.08333 9.52405 9.17991 9.35214 9.35182C9.18024 9.52373 9.08366 9.75688 9.08366 10C9.08366 10.2431 9.18024 10.4763 9.35214 10.6482C9.52405 10.8201 9.75721 10.9167 10.0003 10.9167C10.2434 10.9167 10.4766 10.8201 10.6485 10.6482C10.8204 10.4763 10.917 10.2431 10.917 10C10.917 9.75688 10.8204 9.52373 10.6485 9.35182C10.4766 9.17991 10.2434 9.08333 10.0003 9.08333Z" fill="white"/>
<path d="M30.0528 15.5C29.9354 15.5 29.8394 15.4627 29.7648 15.388C29.6901 15.3133 29.6528 15.2173 29.6528 15.1V4.7C29.6528 4.58267 29.6901 4.48667 29.7648 4.412C29.8394 4.33733 29.9354 4.3 30.0528 4.3H37.3008C37.4181 4.3 37.5141 4.33733 37.5888 4.412C37.6634 4.48667 37.7008 4.58267 37.7008 4.7V5.98C37.7008 6.08667 37.6634 6.17733 37.5888 6.252C37.5141 6.32667 37.4181 6.364 37.3008 6.364H32.1168V8.876H36.9488C37.0661 8.876 37.1621 8.91333 37.2368 8.988C37.3114 9.06267 37.3488 9.15867 37.3488 9.276V10.46C37.3488 10.5667 37.3114 10.6573 37.2368 10.732C37.1621 10.8067 37.0661 10.844 36.9488 10.844H32.1168V13.436H37.4288C37.5461 13.436 37.6421 13.4733 37.7168 13.548C37.7914 13.6227 37.8288 13.7187 37.8288 13.836V15.1C37.8288 15.2173 37.7914 15.3133 37.7168 15.388C37.6421 15.4627 37.5461 15.5 37.4288 15.5H30.0528ZM39.1229 15.5C39.0269 15.5 38.9469 15.468 38.8829 15.404C38.8189 15.3293 38.7869 15.2493 38.7869 15.164C38.7869 15.132 38.7922 15.1 38.8029 15.068C38.8135 15.036 38.8242 15.004 38.8349 14.972L42.3709 9.788L39.0749 4.828C39.0429 4.764 39.0269 4.7 39.0269 4.636C39.0269 4.55067 39.0589 4.476 39.1229 4.412C39.1869 4.33733 39.2669 4.3 39.3629 4.3H41.3309C41.4695 4.3 41.5762 4.33733 41.6509 4.412C41.7362 4.48667 41.8002 4.556 41.8429 4.62L43.9869 7.804L46.1469 4.62C46.1895 4.556 46.2535 4.48667 46.3389 4.412C46.4242 4.33733 46.5362 4.3 46.6749 4.3H48.5469C48.6322 4.3 48.7069 4.33733 48.7709 4.412C48.8455 4.476 48.8829 4.55067 48.8829 4.636C48.8829 4.71067 48.8615 4.77467 48.8189 4.828L45.5229 9.772L49.0749 14.972C49.0962 15.004 49.1069 15.036 49.1069 15.068C49.1175 15.1 49.1229 15.132 49.1229 15.164C49.1229 15.2493 49.0909 15.3293 49.0269 15.404C48.9629 15.468 48.8829 15.5 48.7869 15.5H46.7549C46.6162 15.5 46.5042 15.4627 46.4189 15.388C46.3442 15.3133 46.2855 15.2493 46.2429 15.196L43.9069 11.836L41.5869 15.196C41.5549 15.2493 41.4962 15.3133 41.4109 15.388C41.3362 15.4627 41.2242 15.5 41.0749 15.5H39.1229ZM50.9434 15.5C50.826 15.5 50.73 15.4627 50.6554 15.388C50.5807 15.3133 50.5434 15.2173 50.5434 15.1V4.7C50.5434 4.58267 50.5807 4.48667 50.6554 4.412C50.73 4.33733 50.826 4.3 50.9434 4.3H55.3114C56.1754 4.3 56.922 4.43333 57.5514 4.7C58.1914 4.96667 58.6874 5.372 59.0394 5.916C59.402 6.44933 59.5834 7.116 59.5834 7.916C59.5834 8.72667 59.402 9.39867 59.0394 9.932C58.6874 10.4547 58.1914 10.844 57.5514 11.1C56.922 11.356 56.1754 11.484 55.3114 11.484H53.1674V15.1C53.1674 15.2173 53.13 15.3133 53.0554 15.388C52.9807 15.4627 52.8847 15.5 52.7674 15.5H50.9434ZM53.1194 9.5H55.2314C55.7754 9.5 56.1967 9.36667 56.4954 9.1C56.8047 8.83333 56.9594 8.43333 56.9594 7.9C56.9594 7.43067 56.8207 7.04667 56.5434 6.748C56.2767 6.44933 55.8394 6.3 55.2314 6.3H53.1194V9.5ZM61.6153 15.5C61.4979 15.5 61.4019 15.4627 61.3273 15.388C61.2526 15.3133 61.2153 15.2173 61.2153 15.1V4.7C61.2153 4.58267 61.2526 4.48667 61.3273 4.412C61.4019 4.33733 61.4979 4.3 61.6153 4.3H63.3913C63.5086 4.3 63.6046 4.33733 63.6793 4.412C63.7539 4.48667 63.7913 4.58267 63.7913 4.7V13.356H68.7513C68.8686 13.356 68.9646 13.3933 69.0393 13.468C69.1139 13.5427 69.1513 13.6387 69.1513 13.756V15.1C69.1513 15.2173 69.1139 15.3133 69.0393 15.388C68.9646 15.4627 68.8686 15.5 68.7513 15.5H61.6153ZM74.9289 15.66C73.9582 15.66 73.1209 15.5 72.4169 15.18C71.7129 14.86 71.1635 14.38 70.7689 13.74C70.3742 13.0893 70.1609 12.2733 70.1289 11.292C70.1182 10.8333 70.1129 10.38 70.1129 9.932C70.1129 9.47333 70.1182 9.00933 70.1289 8.54C70.1609 7.58 70.3742 6.77467 70.7689 6.124C71.1742 5.46267 71.7289 4.96667 72.4329 4.636C73.1475 4.30533 73.9795 4.14 74.9289 4.14C75.8675 4.14 76.6889 4.30533 77.3929 4.636C78.1075 4.96667 78.6675 5.46267 79.0729 6.124C79.4782 6.77467 79.6915 7.58 79.7129 8.54C79.7342 9.00933 79.7449 9.47333 79.7449 9.932C79.7449 10.38 79.7342 10.8333 79.7129 11.292C79.6809 12.2733 79.4675 13.0893 79.0729 13.74C78.6782 14.38 78.1289 14.86 77.4249 15.18C76.7209 15.5 75.8889 15.66 74.9289 15.66ZM74.9289 13.596C75.5475 13.596 76.0542 13.4093 76.4489 13.036C76.8542 12.652 77.0675 12.044 77.0889 11.212C77.1102 10.7427 77.1209 10.3053 77.1209 9.9C77.1209 9.484 77.1102 9.04667 77.0889 8.588C77.0782 8.03333 76.9769 7.58 76.7849 7.228C76.5929 6.876 76.3369 6.62 76.0169 6.46C75.7075 6.28933 75.3449 6.204 74.9289 6.204C74.5129 6.204 74.1449 6.28933 73.8249 6.46C73.5049 6.62 73.2489 6.876 73.0569 7.228C72.8755 7.58 72.7742 8.03333 72.7529 8.588C72.7422 9.04667 72.7369 9.484 72.7369 9.9C72.7369 10.3053 72.7422 10.7427 72.7529 11.212C72.7849 12.044 72.9982 12.652 73.3929 13.036C73.7875 13.4093 74.2995 13.596 74.9289 13.596ZM82.1309 15.5C82.0135 15.5 81.9175 15.4627 81.8429 15.388C81.7682 15.3133 81.7309 15.2173 81.7309 15.1V4.7C81.7309 4.58267 81.7682 4.48667 81.8429 4.412C81.9175 4.33733 82.0135 4.3 82.1309 4.3H86.3709C87.7042 4.3 88.7549 4.60933 89.5229 5.228C90.2909 5.836 90.6749 6.716 90.6749 7.868C90.6749 8.64667 90.4882 9.29733 90.1149 9.82C89.7415 10.3427 89.2402 10.732 88.6109 10.988L90.8669 14.988C90.8989 15.052 90.9149 15.1107 90.9149 15.164C90.9149 15.2493 90.8829 15.3293 90.8189 15.404C90.7549 15.468 90.6749 15.5 90.5789 15.5H88.8029C88.6109 15.5 88.4669 15.452 88.3709 15.356C88.2749 15.2493 88.2055 15.1533 88.1629 15.068L86.2109 11.404H84.2749V15.1C84.2749 15.2173 84.2375 15.3133 84.1629 15.388C84.0882 15.4627 83.9922 15.5 83.8749 15.5H82.1309ZM84.2749 9.372H86.3229C86.9095 9.372 87.3415 9.23867 87.6189 8.972C87.9069 8.70533 88.0509 8.332 88.0509 7.852C88.0509 7.372 87.9122 6.99333 87.6349 6.716C87.3575 6.43867 86.9202 6.3 86.3229 6.3H84.2749V9.372ZM93.0371 15.5C92.9198 15.5 92.8238 15.4627 92.7491 15.388C92.6745 15.3133 92.6371 15.2173 92.6371 15.1V4.7C92.6371 4.58267 92.6745 4.48667 92.7491 4.412C92.8238 4.33733 92.9198 4.3 93.0371 4.3H100.285C100.402 4.3 100.498 4.33733 100.573 4.412C100.648 4.48667 100.685 4.58267 100.685 4.7V5.98C100.685 6.08667 100.648 6.17733 100.573 6.252C100.498 6.32667 100.402 6.364 100.285 6.364H95.1011V8.876H99.9331C100.05 8.876 100.146 8.91333 100.221 8.988C100.296 9.06267 100.333 9.15867 100.333 9.276V10.46C100.333 10.5667 100.296 10.6573 100.221 10.732C100.146 10.8067 100.05 10.844 99.9331 10.844H95.1011V13.436H100.413C100.53 13.436 100.626 13.4733 100.701 13.548C100.776 13.6227 100.813 13.7187 100.813 13.836V15.1C100.813 15.2173 100.776 15.3133 100.701 15.388C100.626 15.4627 100.53 15.5 100.413 15.5H93.0371Z" fill="white"/>
</svg>
