<svg width="84" height="20" viewBox="0 0 84 20" fill="none" xmlns="http://www.w3.org/2000/svg">
<path d="M5.16673 2.03333L15.0834 11.95L16.8501 10.1833L18.0251 11.3583L15.9667 13.4167L18.6167 16.0667C18.9417 16.3917 18.9417 16.9167 18.6167 17.2417L18.0251 17.8333C17.7001 18.1583 17.1751 18.1583 16.8501 17.8333L14.1667 15.1917L12.1334 17.25L10.9584 16.075L12.7251 14.3083L2.8084 4.39167V2.03333H5.16673ZM13.2417 8.33333L17.1917 4.38333V2.03333H14.8334L10.8834 5.98333L13.2417 8.33333ZM9.11673 12.5L6.7584 10.1083L4.91673 11.95L3.15006 10.1833L1.97507 11.3583L4.0334 13.4167L1.3834 16.075C1.0584 16.4 1.0584 16.925 1.3834 17.25L1.97507 17.8417C2.30007 18.1667 2.82507 18.1667 3.15006 17.8417L5.8334 15.1917L7.86673 17.25L9.04173 16.075L7.27506 14.3083L9.11673 12.5Z" fill="white"/>
<path d="M29.5671 15.5C29.4711 15.5 29.3911 15.468 29.3271 15.404C29.2631 15.3293 29.2311 15.2493 29.2311 15.164C29.2311 15.1107 29.2364 15.0627 29.2471 15.02L33.0551 4.732C33.0871 4.61467 33.1511 4.51333 33.2471 4.428C33.3431 4.34267 33.4764 4.3 33.6471 4.3H35.6951C35.8657 4.3 35.9991 4.34267 36.0951 4.428C36.1911 4.51333 36.2551 4.61467 36.2871 4.732L40.0951 15.02C40.1057 15.0627 40.1111 15.1107 40.1111 15.164C40.1111 15.2493 40.0791 15.3293 40.0151 15.404C39.9511 15.468 39.8711 15.5 39.7751 15.5H38.1111C37.9511 15.5 37.8337 15.4627 37.7591 15.388C37.6844 15.3133 37.6364 15.244 37.6151 15.18L36.9271 13.388H32.4151L31.7271 15.18C31.7057 15.244 31.6577 15.3133 31.5831 15.388C31.5084 15.4627 31.3911 15.5 31.2311 15.5H29.5671ZM33.0071 11.324H36.3191L34.6711 6.716L33.0071 11.324ZM41.8887 15.5C41.7714 15.5 41.6754 15.4627 41.6007 15.388C41.526 15.3133 41.4887 15.2173 41.4887 15.1V4.7C41.4887 4.58267 41.526 4.48667 41.6007 4.412C41.6754 4.33733 41.7714 4.3 41.8887 4.3H46.1287C47.462 4.3 48.5127 4.60933 49.2807 5.228C50.0487 5.836 50.4327 6.716 50.4327 7.868C50.4327 8.64667 50.246 9.29733 49.8727 9.82C49.4994 10.3427 48.998 10.732 48.3687 10.988L50.6247 14.988C50.6567 15.052 50.6727 15.1107 50.6727 15.164C50.6727 15.2493 50.6407 15.3293 50.5767 15.404C50.5127 15.468 50.4327 15.5 50.3367 15.5H48.5607C48.3687 15.5 48.2247 15.452 48.1287 15.356C48.0327 15.2493 47.9634 15.1533 47.9207 15.068L45.9687 11.404H44.0327V15.1C44.0327 15.2173 43.9954 15.3133 43.9207 15.388C43.846 15.4627 43.75 15.5 43.6327 15.5H41.8887ZM44.0327 9.372H46.0807C46.6674 9.372 47.0994 9.23867 47.3767 8.972C47.6647 8.70533 47.8087 8.332 47.8087 7.852C47.8087 7.372 47.67 6.99333 47.3927 6.716C47.1154 6.43867 46.678 6.3 46.0807 6.3H44.0327V9.372ZM52.7949 15.5C52.6776 15.5 52.5816 15.4627 52.5069 15.388C52.4323 15.3133 52.3949 15.2173 52.3949 15.1V4.7C52.3949 4.58267 52.4323 4.48667 52.5069 4.412C52.5816 4.33733 52.6776 4.3 52.7949 4.3H60.0429C60.1603 4.3 60.2563 4.33733 60.3309 4.412C60.4056 4.48667 60.4429 4.58267 60.4429 4.7V5.98C60.4429 6.08667 60.4056 6.17733 60.3309 6.252C60.2563 6.32667 60.1603 6.364 60.0429 6.364H54.8589V8.876H59.6909C59.8083 8.876 59.9043 8.91333 59.9789 8.988C60.0536 9.06267 60.0909 9.15867 60.0909 9.276V10.46C60.0909 10.5667 60.0536 10.6573 59.9789 10.732C59.9043 10.8067 59.8083 10.844 59.6909 10.844H54.8589V13.436H60.1709C60.2883 13.436 60.3843 13.4733 60.4589 13.548C60.5336 13.6227 60.5709 13.7187 60.5709 13.836V15.1C60.5709 15.2173 60.5336 15.3133 60.4589 15.388C60.3843 15.4627 60.2883 15.5 60.1709 15.5H52.7949ZM62.8731 15.5C62.7557 15.5 62.6597 15.4627 62.5851 15.388C62.5104 15.3133 62.4731 15.2173 62.4731 15.1V4.7C62.4731 4.58267 62.5104 4.48667 62.5851 4.412C62.6597 4.33733 62.7557 4.3 62.8731 4.3H64.3291C64.4891 4.3 64.6064 4.33733 64.6811 4.412C64.7557 4.48667 64.8037 4.54533 64.8251 4.588L69.0971 11.26V4.7C69.0971 4.58267 69.1344 4.48667 69.2091 4.412C69.2837 4.33733 69.3744 4.3 69.4811 4.3H71.1131C71.2304 4.3 71.3264 4.33733 71.4011 4.412C71.4757 4.48667 71.5131 4.58267 71.5131 4.7V15.1C71.5131 15.2067 71.4757 15.3027 71.4011 15.388C71.3264 15.4627 71.2304 15.5 71.1131 15.5H69.6411C69.4811 15.5 69.3637 15.4627 69.2891 15.388C69.2251 15.3027 69.1771 15.244 69.1451 15.212L64.8891 8.748V15.1C64.8891 15.2173 64.8517 15.3133 64.7771 15.388C64.7024 15.4627 64.6064 15.5 64.4891 15.5H62.8731ZM73.2233 15.5C73.1273 15.5 73.0473 15.468 72.9833 15.404C72.9193 15.3293 72.8873 15.2493 72.8873 15.164C72.8873 15.1107 72.8926 15.0627 72.9033 15.02L76.7113 4.732C76.7433 4.61467 76.8073 4.51333 76.9033 4.428C76.9993 4.34267 77.1326 4.3 77.3033 4.3H79.3513C79.522 4.3 79.6553 4.34267 79.7513 4.428C79.8473 4.51333 79.9113 4.61467 79.9433 4.732L83.7513 15.02C83.762 15.0627 83.7673 15.1107 83.7673 15.164C83.7673 15.2493 83.7353 15.3293 83.6713 15.404C83.6073 15.468 83.5273 15.5 83.4313 15.5H81.7673C81.6073 15.5 81.49 15.4627 81.4153 15.388C81.3406 15.3133 81.2926 15.244 81.2713 15.18L80.5833 13.388H76.0713L75.3833 15.18C75.362 15.244 75.314 15.3133 75.2393 15.388C75.1646 15.4627 75.0473 15.5 74.8873 15.5H73.2233ZM76.6633 11.324H79.9753L78.3273 6.716L76.6633 11.324Z" fill="white"/>
</svg>
