<svg width="54" height="54" viewBox="0 0 54 54" fill="none" xmlns="http://www.w3.org/2000/svg">
<path d="M26.6667 0C11.92 0 0 11.92 0 26.6667C0 41.4133 11.92 53.3333 26.6667 53.3333C33.7391 53.3333 40.5219 50.5238 45.5228 45.5228C50.5238 40.5219 53.3333 33.7391 53.3333 26.6667C53.3333 11.92 41.3333 0 26.6667 0ZM12.6933 18.1867L15.52 15.36L18.3467 18.1867L21.1733 15.36L24 18.1867L21.1733 21.0133L24 23.84L21.1733 26.6667L18.3467 23.84L15.52 26.6667L12.6933 23.84L15.52 21.0133L12.6933 18.1867ZM13.04 41.3333C15.1733 35.8933 20.4533 32 26.6667 32C32.88 32 38.16 35.8933 40.2933 41.3333H13.04ZM40.64 23.84L37.8133 26.6667L34.9867 23.84L32.16 26.6667L29.3333 23.84L32.16 21.0133L29.3333 18.1867L32.16 15.36L34.9867 18.1867L37.8133 15.36L40.64 18.1867L37.8133 21.0133L40.64 23.84Z" fill="#8C8C8C"/>
</svg>
